<?xml version="1.0" standalone="no"?>
<!DOCTYPE svg PUBLIC "-//W3C//DTD SVG 20010904//EN"
 "http://www.w3.org/TR/2001/REC-SVG-20010904/DTD/svg10.dtd">
<svg version="1.0" xmlns="http://www.w3.org/2000/svg"
 width="16.000000pt" height="16.000000pt" viewBox="0 0 16.000000 16.000000"
 preserveAspectRatio="xMidYMid meet">

<g transform="translate(0.000000,16.000000) scale(0.100000,-0.100000)"
fill="#000000" stroke="none">
<path d="M76 143 c-8 -21 8 -31 40 -25 31 6 30 8 -5 26 -26 14 -30 14 -35 -1z"/>
<path d="M16 112 c-9 -18 -14 -38 -10 -44 4 -6 13 3 21 22 19 46 10 63 -11 22z"/>
<path d="M139 66 c-7 -14 -18 -26 -25 -26 -14 0 -29 -18 -21 -26 2 -2 12 -2
21 2 18 7 51 62 42 71 -3 3 -11 -6 -17 -21z"/>
<path d="M20 35 c0 -2 9 -9 19 -14 14 -8 20 -7 25 4 4 11 -2 15 -19 15 -14 0
-25 -2 -25 -5z"/>
</g>
</svg>
